<svg width="74" height="74" viewBox="0 0 74 74" fill="none" xmlns="http://www.w3.org/2000/svg">
<path d="M31.8654 43.6007L23.982 35.7173C23.3098 35.0451 22.4543 34.709 21.4154 34.709C20.3765 34.709 19.5209 35.0451 18.8487 35.7173C18.1765 36.3895 17.8404 37.2451 17.8404 38.284C17.8404 39.3229 18.1765 40.1784 18.8487 40.8507L29.2987 51.3007C30.032 52.034 30.8876 52.4007 31.8654 52.4007C32.8431 52.4007 33.6987 52.034 34.432 51.3007L55.1487 30.584C55.8209 29.9118 56.157 29.0562 56.157 28.0173C56.157 26.9784 55.8209 26.1229 55.1487 25.4507C54.4765 24.7784 53.6209 24.4423 52.582 24.4423C51.5431 24.4423 50.6876 24.7784 50.0154 25.4507L31.8654 43.6007ZM36.9987 73.6673C31.9265 73.6673 27.1598 72.7048 22.6987 70.7798C18.2376 68.8548 14.357 66.2423 11.057 62.9423C7.75703 59.6423 5.14453 55.7618 3.21953 51.3007C1.29453 46.8395 0.332031 42.0729 0.332031 37.0007C0.332031 31.9284 1.29453 27.1618 3.21953 22.7007C5.14453 18.2395 7.75703 14.359 11.057 11.059C14.357 7.75898 18.2376 5.14648 22.6987 3.22148C27.1598 1.29648 31.9265 0.333984 36.9987 0.333984C42.0709 0.333984 46.8376 1.29648 51.2987 3.22148C55.7598 5.14648 59.6404 7.75898 62.9404 11.059C66.2404 14.359 68.8529 18.2395 70.7779 22.7007C72.7029 27.1618 73.6654 31.9284 73.6654 37.0007C73.6654 42.0729 72.7029 46.8395 70.7779 51.3007C68.8529 55.7618 66.2404 59.6423 62.9404 62.9423C59.6404 66.2423 55.7598 68.8548 51.2987 70.7798C46.8376 72.7048 42.0709 73.6673 36.9987 73.6673Z" fill="#C89D65"/>
</svg>
