<svg id="social_icon-ig" xmlns="http://www.w3.org/2000/svg" xmlns:xlink="http://www.w3.org/1999/xlink" width="30" height="30.019" viewBox="0 0 30 30.019">
  <defs>
    <clipPath id="clip-path">
      <rect id="Rectangle_50" data-name="Rectangle 50" width="30" height="30.019" fill="none"/>
    </clipPath>
  </defs>
  <g id="Group_5" data-name="Group 5" transform="translate(0 0)" clip-path="url(#clip-path)">
    <path id="Path_15" data-name="Path 15" d="M30,7.242a6.765,6.765,0,0,0-.056-1,7.156,7.156,0,0,0-.778-2.253,7.593,7.593,0,0,0-1.816-2.262A7.515,7.515,0,0,0,24.452.214,6.327,6.327,0,0,0,22.705.006C17.429.011,12.153-.017,6.877.02a4.336,4.336,0,0,0-.833.068,7.725,7.725,0,0,0-4.44,2.7A7.236,7.236,0,0,0,.356,5.037,5.215,5.215,0,0,0,.049,6.33C.031,6.552.035,6.776,0,7v.09c.048.053.024.118.028.178A1.537,1.537,0,0,1,0,7.746V22.6a.286.286,0,0,1,0,.27v.21c.027.036.012.077.015.116a5.515,5.515,0,0,0,.063.772A7.577,7.577,0,0,0,2.8,28.435,7.228,7.228,0,0,0,6.17,29.95a7.741,7.741,0,0,0,1.377.067v-.012H11.86l4.2,0c.125,0,.25,0,.374,0h6c.07,0,.14,0,.21,0,0,0,0,.007,0,.011a8.284,8.284,0,0,0,1.18-.06,6.085,6.085,0,0,0,1.862-.591,8.317,8.317,0,0,0,2.2-1.584A7.038,7.038,0,0,0,29.1,26.2a7.256,7.256,0,0,0,.9-3.573q-.009-7.691,0-15.381m-15,14.017a6.244,6.244,0,1,1,6.24-6.22,6.27,6.27,0,0,1-6.24,6.22M23.1,8.76a1.87,1.87,0,1,1,.02-3.74A1.913,1.913,0,0,1,24.98,6.9,1.894,1.894,0,0,1,23.1,8.76" transform="translate(0 0)" fill="#fff"/>
  </g>
</svg>
