<svg id="social_icon-fb" xmlns="http://www.w3.org/2000/svg" xmlns:xlink="http://www.w3.org/1999/xlink" width="33.097" height="33.119" viewBox="0 0 33.097 33.119">
  <defs>
    <clipPath id="clip-path">
      <rect id="Rectangle_49" data-name="Rectangle 49" width="33.097" height="33.119" fill="none"/>
    </clipPath>
  </defs>
  <g id="Group_3" data-name="Group 3" clip-path="url(#clip-path)">
    <path id="Path_8" data-name="Path 8" d="M60.519,122.729c0,.01,0,.02,0,.03H59.445c0-.01,0-.02,0-.03a2.342,2.342,0,0,1,1.075,0" transform="translate(-43.439 -89.639)" fill="#fff"/>
    <path id="Path_9" data-name="Path 9" d="M122.68,59.516v1.039a.039.039,0,0,1-.054-.017,3.342,3.342,0,0,1,0-1.006.039.039,0,0,1,.054-.016" transform="translate(-89.582 -43.488)" fill="#fff"/>
    <path id="Path_10" data-name="Path 10" d="M122.719,58.877h-.032a.19.19,0,0,1-.018-.222.036.036,0,0,1,.051-.012Z" transform="translate(-89.622 -42.849)" fill="#fff"/>
    <path id="Path_11" data-name="Path 11" d="M122.688,63.388h.032v.235a.036.036,0,0,1-.051-.012.189.189,0,0,1,.019-.221" transform="translate(-89.622 -46.321)" fill="#fff"/>
    <path id="Path_12" data-name="Path 12" d="M122.742,58.2h-.031a.11.11,0,0,1,0-.167h.03Z" transform="translate(-89.645 -42.407)" fill="#fff"/>
    <path id="Path_13" data-name="Path 13" d="M122.712,64.26h.031v.167h-.03a.11.11,0,0,1,0-.167" transform="translate(-89.645 -46.958)" fill="#fff"/>
    <path id="Path_14" data-name="Path 14" d="M33.067,17.3c0-.078,0-.156,0-.235q0-.521,0-1.041c0-.078,0-.156,0-.235,0-.056,0-.112,0-.167q-.039-.525-.1-1.048a15.721,15.721,0,0,0-.693-3.159A16.541,16.541,0,0,0,13.764.237,16.346,16.346,0,0,0,8.832,1.915,16.546,16.546,0,0,0,4.073,5.687,16.453,16.453,0,0,0,.01,17.082,16.6,16.6,0,0,0,.2,19.128,16.184,16.184,0,0,0,1.5,23.448a16.676,16.676,0,0,0,8.121,8.128,16.413,16.413,0,0,0,6.38,1.512H17.08a17.662,17.662,0,0,0,2.059-.2,16.264,16.264,0,0,0,5.347-1.831A16.555,16.555,0,0,0,33.069,17.47c0-.056,0-.112,0-.167m-12.085-3.25c-.068.552-.126,1.106-.183,1.66-.04.388-.069.776-.109,1.164-.022.21-.081.257-.293.257l-2.161,0c-.229,0-.284.051-.282.286.007,1.15.039,2.3.017,3.449-.028,1.423-.012,2.847-.013,4.27,0,.407.018.814.019,1.221,0,.313-.052.365-.355.365H14.338c-.3,0-.372-.067-.373-.372q0-2.027,0-4.054h0q0-1.985,0-3.971c0-.267.02-.535.022-.8,0-.333-.07-.4-.4-.394-.424,0-.849,0-1.273,0-.178,0-.23-.05-.23-.229,0-.983,0-1.966,0-2.948,0-.15.062-.212.211-.211.469,0,.938,0,1.407,0,.229,0,.266-.036.266-.261,0-.564-.011-1.128,0-1.692a5.769,5.769,0,0,1,.355-2.03A3.31,3.31,0,0,1,16.7,7.683a5.107,5.107,0,0,1,1.24-.158c.91-.009,1.821,0,2.731,0,.232,0,.285.055.286.29q0,1.382,0,2.764c0,.194-.062.253-.268.253-.6,0-1.195,0-1.793,0a1.329,1.329,0,0,0-.332.031.726.726,0,0,0-.585.7c-.013.352,0,.7-.008,1.055,0,.284-.019.568-.022.852,0,.217.06.276.28.276l2.5,0c.246,0,.282.059.252.306" transform="translate(0 0)" fill="#fff"/>
  </g>
</svg>
